<?xml version="1.0" encoding="utf-8"?>
<!-- Generator: Adobe Illustrator 21.0.0, SVG Export Plug-In . SVG Version: 6.00 Build 0)  -->
<svg version="1.1" xmlns="http://www.w3.org/2000/svg" xmlns:xlink="http://www.w3.org/1999/xlink" x="0px" y="0px"
	 viewBox="0 0 810 113" style="enable-background:new 0 0 810 113;" xml:space="preserve">
<style type="text/css">
	.st0{fill:#231F20;}
	.st1{opacity:0.6;fill:#CCCCCC;}
	.st2{fill:#FFFFFF;}
</style>
<g id="Layer_4">
</g>
<g id="Logo">
	<g id="Black-Outline">
		<path class="st0" d="M771,69v31h5V69H771z M771,13v31h5V13H771z M771,13v31h5V13H771z M771,69v31h5V69H771z M771,100h5V69h-5V100z
			 M771,13v31h5V13H771z M735,0v113h75V0H735z M805,56h-18v5h18v47h-65V5h65V56z M776,69h-5v31h5V69z M776,13h-5v31h5V13z M771,13
			v31h5V13H771z M771,69v31h5V69H771z"/>
		<path class="st0" d="M665,0v113h75V0H665z M735,108h-65V5h30v72h5V5h30V108z"/>
		<path class="st0" d="M595.1,72L595.1,72V39.7 M595,39v33h5V39H595z M635,73V0h-40v113h75V73H635z M665,108h-65V5h30v73h35V108z
			 M595,39v33h5V39H595z"/>
		<path class="st0" d="M526,0v113h74V72h-35V39h35V0H526z M595,34h-35v43h35v31h-64V5h64V34z"/>
		<path class="st0" d="M173,22v34h6V22H173z M173,22v34h6V22H173z M173,22v34h6V22H173z M173,22v34h6V22H173z M139,0v113h75V0H139z
			 M209,56h-18v5h18v47h-30V72h-5v36h-30V5h65V56z M179,22h-6v34h6V22z M173,22v34h6V22H173z M173,22v34h6V22H173z"/>
		<path class="st0" d="M388,27v59h5V27H388z M388,27v59h5V27H388z M388,27v59h5V27H388z M388,27v59h5V27H388z M354,0v113h74V0H354z
			 M423,108h-64V5h64V108z M393,27h-5v59h5V27z M388,27v59h5V27H388z M388,27v59h5V27H388z"/>
		<path class="st0" d="M279,0v40h20v73h40V40h20V0H279z M354,35h-20v73h-30V35h-20V5h70V35z"/>
		<path class="st0" d="M244,19v38h5V19H244z M244,19v38h5V19H244z M244,19v38h5V19H244z M244,19v38h5V19H244z M209,0v113h75V0H209z
			 M279,108h-30V74h-5v34h-30V5h65V108z M244,57h5V19h-5V57z M244,19v38h5V19H244z M244,19v38h5V19H244z"/>
		<path class="st0" d="M457,22v34h6V22H457z M457,22v34h6V22H457z M423,0v113h75V0H423z M493,56h-18v5h18v47h-30V72h-5v36h-30V5h65
			V56z M463,22h-6v34h6V22z M457,22v34h6V22H457z M457,22v34h6V22H457z"/>
		<path class="st0" d="M69,39v33h5V39H69z M69,0v113h75V0H69z M139,108H74V5h30v72h5V5h30V108z M69,39v33h5V39H69z"/>
		<path class="st0" d="M0,0v113h74V72H39V39h35V0H0z M69,34H34v43h35v31H5V5h64V34z"/>
	</g>
	<g id="Inner-Opacity">
		<path class="st1" d="M805,56V5h-65v103h65V61h-18v-5H805z M776,100h-5V69h5V100z M776,44h-5V13h5V44z"/>
		<polygon class="st1" points="735,5 735,108 670,108 670,5 700,5 700,77 705,77 705,5 		"/>
		<polygon class="st1" points="665,78 665,108 600,108 600,5 630,5 630,78 		"/>
		<polygon class="st1" points="560,34 560,77 595,77 595,108 531,108 531,5 595,5 595,34 		"/>
		<path class="st1" d="M209,56V5h-65v103h30V72h5v36h30V61h-18v-5H209z M179,56h-6V22h6V56z"/>
		<path class="st1" d="M359,5v103h64V5H359z M393,86h-5V27h5V86z"/>
		<polygon class="st1" points="354,5 354,35 334,35 334,108 304,108 304,35 284,35 284,5 		"/>
		<path class="st1" d="M214,5v103h30V74h5v34h30V5H214z M249,57h-5V19h5V57z"/>
		<path class="st1" d="M493,56V5h-65v103h30V72h5v36h30V61h-18v-5H493z M463,56h-6V22h6V56z"/>
		<polygon class="st1" points="139,5 139,108 74,108 74,5 104,5 104,77 109,77 109,5 		"/>
		<polygon class="st1" points="34,34 34,77 69,77 69,108 5,108 5,5 69,5 69,34 		"/>
	</g>
	<g id="Top-White">
		<rect x="39" y="39" class="st2" width="30" height="33"/>
		<rect x="284" y="40" class="st2" width="15" height="73"/>
		<rect x="339" y="40" class="st2" width="15" height="73"/>
		<rect x="498" class="st2" width="28" height="113"/>
		<rect x="565" y="39" class="st2" width="30" height="33"/>
		<rect x="635" class="st2" width="30" height="73"/>
	</g>
</g>
</svg>
